<svg id="visual" viewBox="0 0 960 540" width="960" height="540" xmlns="http://www.w3.org/2000/svg" xmlns:xlink="http://www.w3.org/1999/xlink" version="1.1"><path d="M0 51L6.2 51C12.3 51 24.7 51 37 59.3C49.3 67.7 61.7 84.3 74 95.5C86.3 106.7 98.7 112.3 111 102.3C123.3 92.3 135.7 66.7 148 61.5C160.3 56.3 172.7 71.7 185 78.3C197.3 85 209.7 83 221.8 86.8C234 90.7 246 100.3 258.2 101.7C270.3 103 282.7 96 295 94C307.3 92 319.7 95 332 99C344.3 103 356.7 108 369 102C381.3 96 393.7 79 406 74.7C418.3 70.3 430.7 78.7 443 85.5C455.3 92.3 467.7 97.7 480 102.8C492.3 108 504.7 113 517 103.8C529.3 94.7 541.7 71.3 554 69.7C566.3 68 578.7 88 591 98.2C603.3 108.3 615.7 108.7 628 105C640.3 101.3 652.7 93.7 665 89C677.3 84.3 689.7 82.7 701.8 77.3C714 72 726 63 738.2 61.7C750.3 60.3 762.7 66.7 775 77C787.3 87.3 799.7 101.7 812 103.2C824.3 104.7 836.7 93.3 849 81.5C861.3 69.7 873.7 57.3 886 59.2C898.3 61 910.7 77 923 83.7C935.3 90.3 947.7 87.7 953.8 86.3L960 85L960 0L953.8 0C947.7 0 935.3 0 923 0C910.7 0 898.3 0 886 0C873.7 0 861.3 0 849 0C836.7 0 824.3 0 812 0C799.7 0 787.3 0 775 0C762.7 0 750.3 0 738.2 0C726 0 714 0 701.8 0C689.7 0 677.3 0 665 0C652.7 0 640.3 0 628 0C615.7 0 603.3 0 591 0C578.7 0 566.3 0 554 0C541.7 0 529.3 0 517 0C504.7 0 492.3 0 480 0C467.7 0 455.3 0 443 0C430.7 0 418.3 0 406 0C393.7 0 381.3 0 369 0C356.7 0 344.3 0 332 0C319.7 0 307.3 0 295 0C282.7 0 270.3 0 258.2 0C246 0 234 0 221.8 0C209.7 0 197.3 0 185 0C172.7 0 160.3 0 148 0C135.7 0 123.3 0 111 0C98.7 0 86.3 0 74 0C61.7 0 49.3 0 37 0C24.7 0 12.3 0 6.2 0L0 0Z" fill="#54220f" stroke-linecap="round" stroke-linejoin="miter"></path></svg>